<svg class="main-svg" xmlns="http://www.w3.org/2000/svg" xmlns:xlink="http://www.w3.org/1999/xlink" width="800" height="500" style="" viewBox="0 0 800 500"><rect x="0" y="0" width="800" height="500" style="fill: rgb(0, 0, 0); fill-opacity: 0;"/><defs id="defs-6a5a9c"><g class="clips"><clipPath id="clip6a5a9cxyplot" class="plotclip"><rect width="639.1999999999999" height="382"/></clipPath><clipPath id="clip6a5a9cxy2plot" class="plotclip"><rect width="639.1999999999999" height="382"/></clipPath><clipPath class="axesclip" id="clip6a5a9cx"><rect x="60" y="0" width="639.1999999999999" height="500"/></clipPath><clipPath class="axesclip" id="clip6a5a9cy"><rect x="0" y="60" width="800" height="382"/></clipPath><clipPath class="axesclip" id="clip6a5a9cxy"><rect x="60" y="60" width="639.1999999999999" height="382"/></clipPath><clipPath class="axesclip" id="clip6a5a9cy2"><rect x="0" y="60" width="800" height="382"/></clipPath><clipPath class="axesclip" id="clip6a5a9cxy2"><rect x="60" y="60" width="639.1999999999999" height="382"/></clipPath></g><g class="gradients"/><g class="patterns"/></defs><g class="bglayer"><rect class="bg" x="60" y="60" width="639.1999999999999" height="382" style="fill: rgb(0, 0, 0); fill-opacity: 0; stroke-width: 0;"/></g><g class="layer-below"><g class="imagelayer"/><g class="shapelayer"/></g><g class="cartesianlayer"><g class="subplot xy"><g class="layer-subplot"><g class="shapelayer"/><g class="imagelayer"/></g><g class="minor-gridlayer"><g class="x"/><g class="y"/><g class="y2"/></g><g class="gridlayer"><g class="x"/><g class="y"/><g class="y2"/></g><g class="zerolinelayer"/><path class="xlines-below"/><path class="ylines-below"/><g class="overlines-below"><path class="xy2-x"/><path class="xy2-y"/></g><g class="xaxislayer-below"/><g class="yaxislayer-below"/><g class="overaxes-below"><g class="xy2-x"/><g class="xy2-y"/></g><g class="plot" transform="translate(60,60)" clip-path="url(#clip6a5a9cxyplot)"><g class="scatterlayer mlayer"><g class="trace scatter trace8a64c6" style="stroke-miterlimit: 2; opacity: 1;"><g class="fills"/><g class="errorbars"/><g class="lines"><path class="js-line" d="M35.71,359.15L98.8,250.21L161.88,194.95L224.97,128.63L288.06,112.85L351.14,106.53L414.23,57.59L477.32,56.01L540.4,62.32L603.49,22.85" style="vector-effect: non-scaling-stroke; fill: none; stroke: rgb(30, 144, 255); stroke-opacity: 1; stroke-width: 2px; opacity: 1;"/></g><g class="points"><path class="point" transform="translate(35.71,359.15)" d="M3,0A3,3 0 1,1 0,-3A3,3 0 0,1 3,0Z" style="opacity: 1; stroke-width: 0px; fill: rgb(30, 144, 255); fill-opacity: 1;"/><path class="point" transform="translate(98.8,250.21)" d="M3,0A3,3 0 1,1 0,-3A3,3 0 0,1 3,0Z" style="opacity: 1; stroke-width: 0px; fill: rgb(30, 144, 255); fill-opacity: 1;"/><path class="point" transform="translate(161.88,194.95)" d="M3,0A3,3 0 1,1 0,-3A3,3 0 0,1 3,0Z" style="opacity: 1; stroke-width: 0px; fill: rgb(30, 144, 255); fill-opacity: 1;"/><path class="point" transform="translate(224.97,128.63)" d="M3,0A3,3 0 1,1 0,-3A3,3 0 0,1 3,0Z" style="opacity: 1; stroke-width: 0px; fill: rgb(30, 144, 255); fill-opacity: 1;"/><path class="point" transform="translate(288.06,112.85)" d="M3,0A3,3 0 1,1 0,-3A3,3 0 0,1 3,0Z" style="opacity: 1; stroke-width: 0px; fill: rgb(30, 144, 255); fill-opacity: 1;"/><path class="point" transform="translate(351.14,106.53)" d="M3,0A3,3 0 1,1 0,-3A3,3 0 0,1 3,0Z" style="opacity: 1; stroke-width: 0px; fill: rgb(30, 144, 255); fill-opacity: 1;"/><path class="point" transform="translate(414.23,57.59)" d="M3,0A3,3 0 1,1 0,-3A3,3 0 0,1 3,0Z" style="opacity: 1; stroke-width: 0px; fill: rgb(30, 144, 255); fill-opacity: 1;"/><path class="point" transform="translate(477.32,56.01)" d="M3,0A3,3 0 1,1 0,-3A3,3 0 0,1 3,0Z" style="opacity: 1; stroke-width: 0px; fill: rgb(30, 144, 255); fill-opacity: 1;"/><path class="point" transform="translate(540.4,62.32)" d="M3,0A3,3 0 1,1 0,-3A3,3 0 0,1 3,0Z" style="opacity: 1; stroke-width: 0px; fill: rgb(30, 144, 255); fill-opacity: 1;"/><path class="point" transform="translate(603.49,22.85)" d="M3,0A3,3 0 1,1 0,-3A3,3 0 0,1 3,0Z" style="opacity: 1; stroke-width: 0px; fill: rgb(30, 144, 255); fill-opacity: 1;"/></g><g class="text"/></g></g></g><g class="overplot"><g class="xy2" transform="translate(60,60)" clip-path="url(#clip6a5a9cxy2plot)"><g class="scatterlayer mlayer"><g class="trace scatter trace010263" style="stroke-miterlimit: 2; opacity: 1;"><g class="fills"/><g class="errorbars"/><g class="lines"><path class="js-line" d="M35.71,22.85L98.8,168.31L161.88,231.48L224.97,246.16L288.06,231.93L351.14,299.54L414.23,323.56L477.32,319.11L540.4,332.9L603.49,359.15" style="vector-effect: non-scaling-stroke; fill: none; stroke: rgb(178, 34, 34); stroke-opacity: 1; stroke-width: 2px; opacity: 1;"/></g><g class="points"><path class="point" transform="translate(35.71,22.85)" d="M3,0A3,3 0 1,1 0,-3A3,3 0 0,1 3,0Z" style="opacity: 1; stroke-width: 0px; fill: rgb(178, 34, 34); fill-opacity: 1;"/><path class="point" transform="translate(98.8,168.31)" d="M3,0A3,3 0 1,1 0,-3A3,3 0 0,1 3,0Z" style="opacity: 1; stroke-width: 0px; fill: rgb(178, 34, 34); fill-opacity: 1;"/><path class="point" transform="translate(161.88,231.48)" d="M3,0A3,3 0 1,1 0,-3A3,3 0 0,1 3,0Z" style="opacity: 1; stroke-width: 0px; fill: rgb(178, 34, 34); fill-opacity: 1;"/><path class="point" transform="translate(224.97,246.16)" d="M3,0A3,3 0 1,1 0,-3A3,3 0 0,1 3,0Z" style="opacity: 1; stroke-width: 0px; fill: rgb(178, 34, 34); fill-opacity: 1;"/><path class="point" transform="translate(288.06,231.93)" d="M3,0A3,3 0 1,1 0,-3A3,3 0 0,1 3,0Z" style="opacity: 1; stroke-width: 0px; fill: rgb(178, 34, 34); fill-opacity: 1;"/><path class="point" transform="translate(351.14,299.54)" d="M3,0A3,3 0 1,1 0,-3A3,3 0 0,1 3,0Z" style="opacity: 1; stroke-width: 0px; fill: rgb(178, 34, 34); fill-opacity: 1;"/><path class="point" transform="translate(414.23,323.56)" d="M3,0A3,3 0 1,1 0,-3A3,3 0 0,1 3,0Z" style="opacity: 1; stroke-width: 0px; fill: rgb(178, 34, 34); fill-opacity: 1;"/><path class="point" transform="translate(477.32,319.11)" d="M3,0A3,3 0 1,1 0,-3A3,3 0 0,1 3,0Z" style="opacity: 1; stroke-width: 0px; fill: rgb(178, 34, 34); fill-opacity: 1;"/><path class="point" transform="translate(540.4,332.9)" d="M3,0A3,3 0 1,1 0,-3A3,3 0 0,1 3,0Z" style="opacity: 1; stroke-width: 0px; fill: rgb(178, 34, 34); fill-opacity: 1;"/><path class="point" transform="translate(603.49,359.15)" d="M3,0A3,3 0 1,1 0,-3A3,3 0 0,1 3,0Z" style="opacity: 1; stroke-width: 0px; fill: rgb(178, 34, 34); fill-opacity: 1;"/></g><g class="text"/></g></g></g></g><path class="xlines-above crisp" d="M59,442.5H700.1999999999999" style="fill: none; stroke-width: 1px; stroke: rgb(0, 0, 0); stroke-opacity: 1;"/><path class="ylines-above crisp" d="M59.5,60V442" style="fill: none; stroke-width: 1px; stroke: rgb(0, 0, 0); stroke-opacity: 1;"/><g class="overlines-above"><path class="xy2-x crisp" d="M0,0" style="fill: none;"/><path class="xy2-y crisp" d="M699.6999999999999,60V442" style="fill: none; stroke-width: 1px; stroke: rgb(0, 0, 0); stroke-opacity: 1;"/></g><g class="xaxislayer-above"><g class="xtick"><text text-anchor="middle" x="0" y="457.4" transform="translate(158.8,0)" style="font-family: 'Open Sans', verdana, arial, sans-serif; font-size: 12px; fill: rgb(42, 63, 95); fill-opacity: 1; white-space: pre; opacity: 1;">2</text></g><g class="xtick"><text text-anchor="middle" x="0" y="457.4" style="font-family: 'Open Sans', verdana, arial, sans-serif; font-size: 12px; fill: rgb(42, 63, 95); fill-opacity: 1; white-space: pre; opacity: 1;" transform="translate(284.97,0)">4</text></g><g class="xtick"><text text-anchor="middle" x="0" y="457.4" style="font-family: 'Open Sans', verdana, arial, sans-serif; font-size: 12px; fill: rgb(42, 63, 95); fill-opacity: 1; white-space: pre; opacity: 1;" transform="translate(411.14,0)">6</text></g><g class="xtick"><text text-anchor="middle" x="0" y="457.4" style="font-family: 'Open Sans', verdana, arial, sans-serif; font-size: 12px; fill: rgb(42, 63, 95); fill-opacity: 1; white-space: pre; opacity: 1;" transform="translate(537.3199999999999,0)">8</text></g><g class="xtick"><text text-anchor="middle" x="0" y="457.4" style="font-family: 'Open Sans', verdana, arial, sans-serif; font-size: 12px; fill: rgb(42, 63, 95); fill-opacity: 1; white-space: pre; opacity: 1;" transform="translate(663.49,0)">10</text></g></g><g class="yaxislayer-above"><g class="ytick"><text text-anchor="end" x="56.6" y="4.199999999999999" transform="translate(0,427.04)" style="font-family: 'Open Sans', verdana, arial, sans-serif; font-size: 12px; fill: rgb(42, 63, 95); fill-opacity: 1; white-space: pre; opacity: 1;">20</text></g><g class="ytick"><text text-anchor="end" x="56.6" y="4.199999999999999" style="font-family: 'Open Sans', verdana, arial, sans-serif; font-size: 12px; fill: rgb(42, 63, 95); fill-opacity: 1; white-space: pre; opacity: 1;" transform="translate(0,387.57)">25</text></g><g class="ytick"><text text-anchor="end" x="56.6" y="4.199999999999999" style="font-family: 'Open Sans', verdana, arial, sans-serif; font-size: 12px; fill: rgb(42, 63, 95); fill-opacity: 1; white-space: pre; opacity: 1;" transform="translate(0,348.1)">30</text></g><g class="ytick"><text text-anchor="end" x="56.6" y="4.199999999999999" style="font-family: 'Open Sans', verdana, arial, sans-serif; font-size: 12px; fill: rgb(42, 63, 95); fill-opacity: 1; white-space: pre; opacity: 1;" transform="translate(0,308.63)">35</text></g><g class="ytick"><text text-anchor="end" x="56.6" y="4.199999999999999" style="font-family: 'Open Sans', verdana, arial, sans-serif; font-size: 12px; fill: rgb(42, 63, 95); fill-opacity: 1; white-space: pre; opacity: 1;" transform="translate(0,269.15999999999997)">40</text></g><g class="ytick"><text text-anchor="end" x="56.6" y="4.199999999999999" style="font-family: 'Open Sans', verdana, arial, sans-serif; font-size: 12px; fill: rgb(42, 63, 95); fill-opacity: 1; white-space: pre; opacity: 1;" transform="translate(0,229.69)">45</text></g><g class="ytick"><text text-anchor="end" x="56.6" y="4.199999999999999" style="font-family: 'Open Sans', verdana, arial, sans-serif; font-size: 12px; fill: rgb(42, 63, 95); fill-opacity: 1; white-space: pre; opacity: 1;" transform="translate(0,190.21)">50</text></g><g class="ytick"><text text-anchor="end" x="56.6" y="4.199999999999999" style="font-family: 'Open Sans', verdana, arial, sans-serif; font-size: 12px; fill: rgb(42, 63, 95); fill-opacity: 1; white-space: pre; opacity: 1;" transform="translate(0,150.74)">55</text></g><g class="ytick"><text text-anchor="end" x="56.6" y="4.199999999999999" style="font-family: 'Open Sans', verdana, arial, sans-serif; font-size: 12px; fill: rgb(42, 63, 95); fill-opacity: 1; white-space: pre; opacity: 1;" transform="translate(0,111.27000000000001)">60</text></g><g class="ytick"><text text-anchor="end" x="56.6" y="4.199999999999999" style="font-family: 'Open Sans', verdana, arial, sans-serif; font-size: 12px; fill: rgb(42, 63, 95); fill-opacity: 1; white-space: pre; opacity: 1;" transform="translate(0,71.8)">65</text></g></g><g class="overaxes-above"><g class="xy2-x"/><g class="xy2-y"><g class="y2tick"><text text-anchor="start" x="702.5999999999999" y="4.199999999999999" transform="translate(0,408.47)" style="font-family: 'Open Sans', verdana, arial, sans-serif; font-size: 12px; fill: rgb(42, 63, 95); fill-opacity: 1; white-space: pre; opacity: 1;">560</text></g><g class="y2tick"><text text-anchor="start" x="702.5999999999999" y="4.199999999999999" style="font-family: 'Open Sans', verdana, arial, sans-serif; font-size: 12px; fill: rgb(42, 63, 95); fill-opacity: 1; white-space: pre; opacity: 1;" transform="translate(0,363.99)">580</text></g><g class="y2tick"><text text-anchor="start" x="702.5999999999999" y="4.199999999999999" style="font-family: 'Open Sans', verdana, arial, sans-serif; font-size: 12px; fill: rgb(42, 63, 95); fill-opacity: 1; white-space: pre; opacity: 1;" transform="translate(0,319.51)">600</text></g><g class="y2tick"><text text-anchor="start" x="702.5999999999999" y="4.199999999999999" style="font-family: 'Open Sans', verdana, arial, sans-serif; font-size: 12px; fill: rgb(42, 63, 95); fill-opacity: 1; white-space: pre; opacity: 1;" transform="translate(0,275.02)">620</text></g><g class="y2tick"><text text-anchor="start" x="702.5999999999999" y="4.199999999999999" style="font-family: 'Open Sans', verdana, arial, sans-serif; font-size: 12px; fill: rgb(42, 63, 95); fill-opacity: 1; white-space: pre; opacity: 1;" transform="translate(0,230.54)">640</text></g><g class="y2tick"><text text-anchor="start" x="702.5999999999999" y="4.199999999999999" style="font-family: 'Open Sans', verdana, arial, sans-serif; font-size: 12px; fill: rgb(42, 63, 95); fill-opacity: 1; white-space: pre; opacity: 1;" transform="translate(0,186.05)">660</text></g><g class="y2tick"><text text-anchor="start" x="702.5999999999999" y="4.199999999999999" style="font-family: 'Open Sans', verdana, arial, sans-serif; font-size: 12px; fill: rgb(42, 63, 95); fill-opacity: 1; white-space: pre; opacity: 1;" transform="translate(0,141.57)">680</text></g><g class="y2tick"><text text-anchor="start" x="702.5999999999999" y="4.199999999999999" style="font-family: 'Open Sans', verdana, arial, sans-serif; font-size: 12px; fill: rgb(42, 63, 95); fill-opacity: 1; white-space: pre; opacity: 1;" transform="translate(0,97.08)">700</text></g></g></g></g><g class="subplot xy2"/></g><g class="polarlayer"/><g class="smithlayer"/><g class="ternarylayer"/><g class="geolayer"/><g class="funnelarealayer"/><g class="pielayer"/><g class="iciclelayer"/><g class="treemaplayer"/><g class="sunburstlayer"/><g class="glimages"/><defs id="topdefs-6a5a9c"><g class="clips"/></defs><g class="layer-above"><g class="imagelayer"/><g class="shapelayer"/></g><g class="infolayer"><g class="g-gtitle"/><g class="g-xtitle"><text class="xtitle" x="379.59999999999997" y="488.00625" text-anchor="middle" style="font-family: 'Open Sans', verdana, arial, sans-serif; font-size: 18px; fill: rgb(0, 0, 0); opacity: 1; font-weight: normal; white-space: pre;">Number of vans</text></g><g class="g-ytitle" transform="translate(4.271484375,0)"><text class="ytitle" transform="rotate(-90,13.728124999999999,251)" x="13.728124999999999" y="251" text-anchor="middle" style="font-family: 'Open Sans', verdana, arial, sans-serif; font-size: 18px; fill: rgb(30, 144, 255); opacity: 1; font-weight: normal; white-space: pre;">Number of rebalancing trips</text></g><g class="g-y2title"><text class="y2title" transform="rotate(-90,753.459375,251)" x="753.459375" y="251" text-anchor="middle" style="font-family: 'Open Sans', verdana, arial, sans-serif; font-size: 18px; fill: rgb(178, 34, 34); opacity: 1; font-weight: normal; white-space: pre;">Unmet demand</text></g></g></svg>